<svg id="call-white" xmlns="http://www.w3.org/2000/svg" width="17.049" height="18.883" viewBox="0 0 17.049 18.883">
  <g id="Сгруппировать_1" data-name="Сгруппировать 1">
    <path id="Контур_1" data-name="Контур 1" d="M15.681,12.394a8.825,8.825,0,0,1-3.04-.536,1.291,1.291,0,0,0-1.351.316l-1.917,1.6A11.231,11.231,0,0,1,4.609,8.5l1.4-2.068a1.644,1.644,0,0,0,.339-1.546,11.8,11.8,0,0,1-.486-3.372A1.449,1.449,0,0,0,4.5,0H1.368A1.449,1.449,0,0,0,0,1.515c0,9.576,7.034,17.367,15.681,17.367a1.449,1.449,0,0,0,1.368-1.515V13.909A1.449,1.449,0,0,0,15.681,12.394Z" fill="#fff"/>
  </g>
</svg>
