<svg xmlns="http://www.w3.org/2000/svg" width="15.88" height="10.917" viewBox="0 0 15.88 10.917">
  <g id="email" transform="translate(0 -80)">
    <g id="Сгруппировать_16" data-name="Сгруппировать 16" transform="translate(10.526 82.013)">
      <g id="Сгруппировать_15" data-name="Сгруппировать 15">
        <path id="Контур_8" data-name="Контур 8" d="M339.392,148.423l5.353,3.384V144.9Z" transform="translate(-339.392 -144.896)" fill="#fff"/>
      </g>
    </g>
    <g id="Сгруппировать_18" data-name="Сгруппировать 18" transform="translate(0 82.013)">
      <g id="Сгруппировать_17" data-name="Сгруппировать 17">
        <path id="Контур_9" data-name="Контур 9" d="M0,144.9v6.912l5.353-3.384Z" transform="translate(0 -144.896)" fill="#fff"/>
      </g>
    </g>
    <g id="Сгруппировать_20" data-name="Сгруппировать 20" transform="translate(0.03 80)">
      <g id="Сгруппировать_19" data-name="Сгруппировать 19">
        <path id="Контур_10" data-name="Контур 10" d="M15.817,80H1.923a.98.98,0,0,0-.963.845l7.91,5.211,7.91-5.211A.98.98,0,0,0,15.817,80Z" transform="translate(-0.96 -80)" fill="#fff"/>
      </g>
    </g>
    <g id="Сгруппировать_22" data-name="Сгруппировать 22" transform="translate(0.032 86.138)">
      <g id="Сгруппировать_21" data-name="Сгруппировать 21">
        <path id="Контур_11" data-name="Контур 11" d="M10.609,277.921l-1.4.925a.5.5,0,0,1-.546,0l-1.4-.926-6.231,3.941a.979.979,0,0,0,.961.838H15.879a.979.979,0,0,0,.961-.838Z" transform="translate(-1.024 -277.92)" fill="#fff"/>
      </g>
    </g>
  </g>
</svg>
