<svg xmlns="http://www.w3.org/2000/svg" xmlns:xlink="http://www.w3.org/1999/xlink" width="40" height="40" viewBox="0 0 40 40">
  <defs>
    <radialGradient id="radial-gradient" cx="0.5" cy="0.5" r="0.5" gradientTransform="matrix(-1, 0, 0, 1, 1, 0)" gradientUnits="objectBoundingBox">
      <stop offset="0" stop-color="#ff7c27"/>
      <stop offset="1" stop-color="#ff8e47"/>
    </radialGradient>
    <filter id="Эллипс_8" x="0" y="0" width="40" height="40" filterUnits="userSpaceOnUse">
      <feOffset dy="3" input="SourceAlpha"/>
      <feGaussianBlur stdDeviation="3" result="blur"/>
      <feFlood flood-opacity="0.161" result="color"/>
      <feComposite operator="out" in="SourceGraphic" in2="blur"/>
      <feComposite operator="in" in="color"/>
      <feComposite operator="in" in2="SourceGraphic"/>
    </filter>
  </defs>
  <g id="left" transform="translate(-121 -1418)">
    <g data-type="innerShadowGroup">
      <circle id="Эллипс_8-2" data-name="Эллипс 8" cx="20" cy="20" r="20" transform="translate(121 1418)" opacity="0.62" fill="url(#radial-gradient)"/>
      <g transform="matrix(1, 0, 0, 1, 121, 1418)" filter="url(#Эллипс_8)">
        <circle id="Эллипс_8-3" data-name="Эллипс 8" cx="20" cy="20" r="20" fill="#fff" opacity="0.62"/>
      </g>
    </g>
    <g id="right-arrow" transform="translate(135.134 1429.734)">
      <g id="Сгруппировать_10" data-name="Сгруппировать 10" transform="translate(0)">
        <path id="Контур_4" data-name="Контур 4" d="M101.742,7.621,109.1.264a.906.906,0,0,1,1.279,0l.542.542a.906.906,0,0,1,0,1.279l-6.178,6.178,6.185,6.185a.906.906,0,0,1,0,1.279l-.542.542a.906.906,0,0,1-1.279,0L101.742,8.9a.913.913,0,0,1,0-1.283Z" transform="translate(-101.478)" fill="#fff"/>
      </g>
    </g>
  </g>
</svg>
