<svg id="setting" xmlns="http://www.w3.org/2000/svg" width="11.668" height="11.668" viewBox="0 0 11.668 11.668">
  <path id="Контур_15" data-name="Контур 15" d="M5.424,235.646h.957v-.912H5.424a2.267,2.267,0,0,0-.333-.8l.678-.678-.645-.645-.678.678a2.266,2.266,0,0,0-.8-.333V232H2.735v.957a2.266,2.266,0,0,0-.8.333l-.678-.678-.645.645.678.678a2.267,2.267,0,0,0-.333.8H0v.912H.957a2.267,2.267,0,0,0,.333.8l-.678.678.645.645.678-.678a2.266,2.266,0,0,0,.8.333v.957h.912v-.957a2.266,2.266,0,0,0,.8-.333l.678.678.645-.645-.678-.678A2.267,2.267,0,0,0,5.424,235.646Zm-2.233.912a1.367,1.367,0,1,1,1.367-1.367A1.369,1.369,0,0,1,3.191,236.558Z" transform="translate(0 -226.713)" fill="#fff"/>
  <path id="Контур_16" data-name="Контур 16" d="M237.424,2.735a2.266,2.266,0,0,0-.333-.8l.678-.678-.645-.645-.678.678a2.267,2.267,0,0,0-.8-.333V0h-.912V.957a2.267,2.267,0,0,0-.8.333l-.678-.678-.645.645.678.678a2.266,2.266,0,0,0-.333.8H232v.912h.957a2.266,2.266,0,0,0,.333.8l-.678.678.645.645.678-.678a2.267,2.267,0,0,0,.8.333v.957h.912V5.424a2.267,2.267,0,0,0,.8-.333l.678.678.645-.645-.678-.678a2.266,2.266,0,0,0,.333-.8h.957V2.735Zm-2.233,1.823a1.367,1.367,0,1,1,1.367-1.367A1.369,1.369,0,0,1,235.191,4.558Z" transform="translate(-226.713 0)" fill="#fff"/>
  <path id="Контур_17" data-name="Контур 17" d="M5.014.912H5.47V0H5.014a5.913,5.913,0,0,0-4.1,1.649V.912H0v3.5L.835,3.153A5.008,5.008,0,0,1,5.014.912Z" fill="#fff"/>
  <path id="Контур_18" data-name="Контур 18" d="M272.456,322.008H272v.912h.456a5.913,5.913,0,0,0,4.1-1.649v.737h.912v-3.5l-.835,1.256A5.008,5.008,0,0,1,272.456,322.008Z" transform="translate(-265.801 -311.251)" fill="#fff"/>
  <circle id="Эллипс_15" data-name="Эллипс 15" cx="1" cy="1" r="1" transform="translate(2.834 6.834)" fill="#fff"/>
  <circle id="Эллипс_16" data-name="Эллипс 16" cx="1" cy="1" r="1" transform="translate(7.834 1.834)" fill="#fff"/>
</svg>
